<svg width="32" height="32" viewBox="0 0 32 32" fill="none" xmlns="http://www.w3.org/2000/svg">
<path d="M16.0001 17.3334C16.7365 17.3334 17.3334 16.7365 17.3334 16.0001C17.3334 15.2637 16.7365 14.6667 16.0001 14.6667C15.2637 14.6667 14.6667 15.2637 14.6667 16.0001C14.6667 16.7365 15.2637 17.3334 16.0001 17.3334Z" stroke="white" stroke-opacity="0.9" stroke-width="3" stroke-linecap="round" stroke-linejoin="round"/>
<path d="M16.0001 7.99992C16.7365 7.99992 17.3334 7.40296 17.3334 6.66659C17.3334 5.93021 16.7365 5.33325 16.0001 5.33325C15.2637 5.33325 14.6667 5.93021 14.6667 6.66659C14.6667 7.40296 15.2637 7.99992 16.0001 7.99992Z" stroke="white" stroke-opacity="0.9" stroke-width="3" stroke-linecap="round" stroke-linejoin="round"/>
<path d="M16.0001 26.6667C16.7365 26.6667 17.3334 26.0697 17.3334 25.3333C17.3334 24.597 16.7365 24 16.0001 24C15.2637 24 14.6667 24.597 14.6667 25.3333C14.6667 26.0697 15.2637 26.6667 16.0001 26.6667Z" stroke="white" stroke-opacity="0.9" stroke-width="3" stroke-linecap="round" stroke-linejoin="round"/>
</svg>
