<svg width="13" height="24" viewBox="0 0 13 24" fill="none" xmlns="http://www.w3.org/2000/svg">
<path fill-rule="evenodd" clip-rule="evenodd" d="M9.30231 13.4118C6.82109 14.4483 6.62574 18.5252 6.60588 19.6186C6.58643 20.7121 5.9559 20.0834 5.9559 20.0834C4.87232 18.5066 5.92731 15.9069 5.92731 15.9069C7.40159 12.2686 9.15659 10.9632 9.56557 10.4558C9.97454 9.94791 9.60845 9.53714 9.36108 8.96889C9.11371 8.40065 9.47464 8.23811 9.47464 8.23811C13.1248 5.68227 11.7943 2.13687 11.7943 2.13687C10.9442 0.284372 9.46908 0.935362 9.46908 0.935362C6.93505 2.30531 6.49471 6.0749 6.45222 6.60937C6.40974 7.14384 6.41807 7.07671 6.3474 7.24854C6.27632 7.42036 5.97257 7.45498 5.97257 7.45498C1.32777 8.7101 0.957709 12.462 0.929915 13.8239C0.902518 15.1858 1.46793 15.7861 1.83481 15.8089C2.2017 15.8322 2.23584 15.201 2.23584 15.201C2.21083 13.7251 2.58883 12.9247 2.58883 12.9247C4.12426 9.0605 6.16316 8.98325 6.38234 9.00646C6.60152 9.02969 6.68252 9.21586 6.52369 9.3822C6.36487 9.54854 5.04425 11.0249 3.98648 13.0758C2.92871 15.1267 2.35179 17.7357 3.12645 19.8964C3.90151 22.0571 5.48419 22.2517 6.12584 22.0415C6.76749 21.8308 6.99024 22.1901 6.99024 22.1901C7.49172 22.874 8.48914 23.772 9.51593 23.5309C10.5427 23.2894 11.1641 21.6472 10.8473 21.2385C10.5308 20.8298 9.86813 21.5399 9.70692 21.6408C9.54571 21.7413 8.88302 22.4387 8.44705 22.0364C8.01108 21.6341 8.47842 21.2524 8.47842 21.2524C11.2372 19.462 11.5727 16.0348 11.5727 16.0348C11.6672 12.4193 9.30231 13.4118 9.30231 13.4118ZM8.51653 5.98962C8.51653 5.98962 8.75239 4.35623 9.65093 3.34766C10.5495 2.33909 10.9735 3.55157 10.3271 5.07012C9.68151 6.58868 8.21358 7.30426 8.51653 5.98962ZM9.68429 17.0607C9.24315 18.7637 8.66384 19.3911 8.25011 19.7161C7.83637 20.0412 7.86417 18.8959 7.86417 18.8959C8.24773 15.8474 9.29755 15.315 9.29755 15.315C9.75973 14.9899 10.1254 15.3576 9.68429 17.0607Z" fill="black"/>
</svg>
