<svg width="9" height="24" viewBox="0 0 9 24" fill="none" xmlns="http://www.w3.org/2000/svg">
<path fill-rule="evenodd" clip-rule="evenodd" d="M7.75521 9.66998C4.20272 12.9642 4.07725 9.65225 4.09313 8.99366C4.10862 8.33465 4.77607 8.14425 6.45365 6.65524C8.13123 5.16624 8.60889 3.57676 8.60889 3.57676C9.31248 0.0651217 6.80942 0.635055 6.80942 0.635055C2.98335 1.83107 1.86245 6.92839 1.86245 6.92839L1.74254 7.44682C1.6131 8.19237 1.00202 8.17506 0.481079 8.55629C-0.0398633 8.93751 0.178916 10.1074 0.188049 10.1491C0.197578 10.1909 0.360373 10.5722 0.760212 10.2327C1.16045 9.89331 1.48365 10.0436 1.4777 10.2332C1.47214 10.4227 1.52217 11.677 1.52217 11.677C2.04152 15.8607 5.40581 14.2054 5.75244 13.9783C6.09908 13.7511 6.15705 14.0108 6.15705 14.1079C6.15705 14.205 6.1495 16.6954 5.46696 18.7243C4.78441 20.7533 4.37623 21.696 3.52613 21.7939C2.67602 21.8919 2.16024 20.6727 2.71057 19.1929C3.2605 17.7132 3.15845 17.0377 3.15845 17.0377C2.85748 15.6817 2.07845 16.9634 2.07845 16.9634C1.13424 18.5107 1.47492 20.9268 1.47492 20.9268C2.15389 25.1511 4.94562 23.1229 4.94562 23.1229C10.0137 18.7969 8.46079 10.1348 8.32777 9.64296C8.19317 9.15197 7.75521 9.66998 7.75521 9.66998ZM4.20193 6.12415C4.20193 6.12415 4.64941 3.99513 6.33414 2.79827C6.33414 2.79827 7.57098 1.95772 7.3919 3.4653C7.3919 3.4653 7.31845 4.67018 4.95872 6.31539C4.95872 6.31539 4.00856 7.19225 4.20193 6.12415Z" fill="black"/>
</svg>
