<svg width="56" height="56" viewBox="0 0 56 56" fill="none" xmlns="http://www.w3.org/2000/svg">
<path d="M51.3334 19.2967V9.87008C51.3334 6.16008 49.8401 4.66675 46.1301 4.66675H36.7034C32.9934 4.66675 31.5001 6.16008 31.5001 9.87008V19.2967C31.5001 23.0067 32.9934 24.5001 36.7034 24.5001H46.1301C49.8401 24.5001 51.3334 23.0067 51.3334 19.2967ZM24.5001 19.8801V9.28675C24.5001 5.99675 23.0067 4.66675 19.2967 4.66675H9.87008C6.16008 4.66675 4.66675 5.99675 4.66675 9.28675V19.8567C4.66675 23.1701 6.16008 24.4767 9.87008 24.4767H19.2967C23.0067 24.5001 24.5001 23.1701 24.5001 19.8801ZM24.5001 46.1301V36.7034C24.5001 32.9934 23.0067 31.5001 19.2967 31.5001H9.87008C6.16008 31.5001 4.66675 32.9934 4.66675 36.7034V46.1301C4.66675 49.8401 6.16008 51.3334 9.87008 51.3334H19.2967C23.0067 51.3334 24.5001 49.8401 24.5001 46.1301Z" stroke="white" stroke-width="3" stroke-linecap="round" stroke-linejoin="round"/>
<path d="M33.8333 40.8333H47.8333M40.8333 47.8333V33.8333" stroke="white" stroke-opacity="0.9" stroke-width="3" stroke-linecap="round"/>
</svg>
