<svg width="56" height="56" viewBox="0 0 56 56" fill="none" xmlns="http://www.w3.org/2000/svg">
<path d="M45.9175 46.1999L37.5461 37.7999M23.71 39.4332C25.7407 39.4332 27.7516 39.0319 29.6278 38.2521C31.5039 37.4723 33.2086 36.3294 34.6446 34.8885C36.0806 33.4477 37.2196 31.7371 37.9968 29.8545C38.7739 27.972 39.1739 25.9542 39.1739 23.9166C39.1739 21.8789 38.7739 19.8612 37.9968 17.9786C37.2196 16.096 36.0806 14.3855 34.6446 12.9446C33.2086 11.5038 31.5039 10.3608 29.6278 9.58104C27.7516 8.80125 25.7407 8.3999 23.71 8.3999C19.6087 8.3999 15.6754 10.0347 12.7754 12.9446C9.87532 15.8546 8.24609 19.8013 8.24609 23.9166C8.24609 28.0318 9.87532 31.9786 12.7754 34.8885C15.6754 37.7985 19.6087 39.4332 23.71 39.4332Z" stroke="white" stroke-width="3" stroke-linecap="round" stroke-linejoin="round"/>
</svg>
