<svg width="56" height="56" viewBox="0 0 56 56" fill="none" xmlns="http://www.w3.org/2000/svg">
<g clip-path="url(#clip0_7941_1073)">
<path d="M40.5705 24.8194V24.8694H40.6205H54.1096C54.84 24.8694 55.4327 25.4622 55.4327 26.1926V51.2089C55.4327 53.3137 53.7149 55.0309 51.6101 55.0309H44.8708H8.31732C4.0523 55.0309 0.567822 51.5464 0.567822 47.2814V2.29206C0.567822 1.56165 1.15993 0.968945 1.89027 0.968945H39.2474C39.9778 0.968945 40.5705 1.56168 40.5705 2.29206V24.8194ZM17.6649 11.4984V11.4484H17.6149H10.3188H10.2688V11.4984V18.7939V18.8439H10.3188H17.6149H17.6649V18.7939V11.4984ZM40.6205 27.5157H40.5705V27.5657V47.2814C40.5705 49.8404 42.4968 52.0299 45.0359 52.3498C45.8977 52.4585 47.0797 52.4671 48.2755 52.4489C48.767 52.4413 49.2606 52.4293 49.7358 52.4177C50.4188 52.401 51.0639 52.3853 51.6101 52.3853C52.2541 52.3853 52.7865 51.8523 52.7865 51.2089V27.5657V27.5157H52.7365H40.6205ZM37.9243 3.66517V3.61517H37.8743H3.26339H3.21339V3.66517V47.2814C3.21339 50.0856 5.51305 52.3853 8.31732 52.3853H39.7448H39.8533L39.7828 52.3028C38.6254 50.9483 37.9243 49.1923 37.9243 47.2814V3.66517ZM11.5563 40.7712C11.1187 40.7712 10.794 40.6054 10.5782 40.3592C10.3615 40.112 10.252 39.7809 10.252 39.4481C10.252 39.1153 10.3615 38.7842 10.5782 38.5371C10.794 38.2909 11.1187 38.125 11.5563 38.125H27.021C27.4588 38.125 27.7836 38.2909 27.9995 38.5371C28.2163 38.7842 28.3258 39.1153 28.3258 39.4481C28.3258 39.7809 28.2163 40.112 27.9995 40.3592C27.7836 40.6054 27.4588 40.7712 27.021 40.7712H11.5563ZM11.5563 47.1983C11.1187 47.1983 10.794 47.0324 10.5782 46.7862C10.3615 46.5391 10.252 46.208 10.252 45.8752C10.252 45.5424 10.3615 45.2113 10.5782 44.9641C10.794 44.7179 11.1187 44.5521 11.5563 44.5521H27.021C27.4588 44.5521 27.7836 44.7179 27.9995 44.9641C28.2163 45.2113 28.3258 45.5424 28.3258 45.8752C28.3258 46.208 28.2163 46.5391 27.9995 46.7862C27.7836 47.0324 27.4588 47.1983 27.021 47.1983H11.5563ZM11.5563 27.9172C11.1187 27.9172 10.794 27.7513 10.5782 27.5051C10.3615 27.2579 10.252 26.9269 10.252 26.594C10.252 26.2612 10.3615 25.9302 10.5782 25.683C10.794 25.4368 11.1187 25.2709 11.5563 25.2709H27.021C27.4588 25.2709 27.7836 25.4368 27.9995 25.683C28.2163 25.9302 28.3258 26.2612 28.3258 26.594C28.3258 26.9268 28.2163 27.2579 27.9995 27.5051C27.7836 27.7513 27.4588 27.9172 27.021 27.9172H11.5563ZM11.5563 34.3442C11.1187 34.3442 10.794 34.1783 10.5782 33.9321C10.3615 33.685 10.252 33.3539 10.252 33.0211C10.252 32.6883 10.3615 32.3572 10.5782 32.11C10.794 31.8638 11.1187 31.698 11.5563 31.698H27.021C27.4588 31.698 27.7836 31.8638 27.9995 32.11C28.2163 32.3572 28.3258 32.6883 28.3258 33.0211C28.3258 33.3539 28.2163 33.685 27.9995 33.9321C27.7836 34.1783 27.4588 34.3442 27.021 34.3442H11.5563ZM8.94567 8.80217H18.9874C19.7184 8.80217 20.3105 9.39425 20.3105 10.1253V20.167C20.3105 20.898 19.7184 21.4901 18.9874 21.4901H8.94567C8.21528 21.4901 7.62255 20.898 7.62255 20.167V10.1253C7.62255 9.39426 8.21528 8.80217 8.94567 8.80217Z" fill="white" fill-opacity="0.9" stroke="white" stroke-width="0.1"/>
</g>
<defs>
<clipPath id="clip0_7941_1073">
<rect width="56" height="56" fill="white"/>
</clipPath>
</defs>
</svg>
