<svg width="16" height="24" viewBox="0 0 16 24" fill="none" xmlns="http://www.w3.org/2000/svg">
<path fill-rule="evenodd" clip-rule="evenodd" d="M1.57904 10.0875C1.57904 10.0875 1.62073 10.6803 1.17801 10.3712C0.73529 10.0622 -0.125537 9.19971 0.0547284 6.87227C0.235391 4.54441 2.0174 0.735987 3.55799 0.443843C5.09858 0.151277 6.01579 1.06697 6.12895 3.71146C6.12895 3.71146 6.1893 5.08564 6.26077 5.26042C6.33224 5.43562 6.39101 5.41366 6.50774 5.29714C6.62488 5.1802 7.1883 4.55539 7.78628 3.17826C8.38425 1.80113 9.02351 0.643531 9.21926 1.88219C9.21926 1.88219 9.31218 3.08369 8.89963 6.89802C8.89963 6.89802 8.67926 9.68817 8.72254 10.4173C8.76582 11.1464 9.10531 10.3197 9.27327 9.98749C9.44162 9.65481 11.232 4.77281 13.9407 6.64979C13.9407 6.64979 15.2097 7.85551 15.0632 9.28035C15.0632 9.28035 14.9615 9.8279 14.1591 9.1862C13.357 8.54408 10.7333 8.64582 8.42951 15.7641C8.42951 15.7641 6.28301 22.6877 5.81567 23.3438C5.34793 24.0003 5.18474 23.0698 5.17243 22.7671C5.16012 22.4644 5.30743 20.3189 5.76048 17.9117C6.21352 15.5044 6.88217 9.58051 6.80316 8.80498C6.72414 8.02987 6.21352 9.18156 6.12776 9.36394C6.04199 9.54674 4.88417 11.6327 3.58658 16.8149C2.28898 21.9975 1.15022 23.1432 0.728937 23.3797C0.307656 23.6161 -0.158889 23.329 0.142082 21.7404C0.443053 20.1517 1.82442 14.9408 2.27747 13.3543C2.73091 11.7678 4.55143 5.44786 3.82322 2.56526C3.82322 2.56526 3.26575 1.54867 2.10078 4.2776C0.936598 7.00737 1.54529 9.66832 1.57904 10.0875Z" fill="black"/>
</svg>
